<svg width="1920" height="5253" viewBox="0 0 1920 5253" fill="none" xmlns="http://www.w3.org/2000/svg">
<g clip-path="url(#clip0_140_1270)">
<rect width="1920" height="5253" fill="white"/>
<circle cx="1742.23" cy="1486.76" r="207.5" transform="rotate(-156.518 1742.23 1486.76)" stroke="#F0C585" stroke-width="15"/>
<circle cx="98.8644" cy="2438.86" r="207.5" transform="rotate(-156.518 98.8644 2438.86)" stroke="#F0C585" stroke-width="15"/>
<rect x="1529.23" y="-28.6082" width="339.538" height="339.538" transform="rotate(-27.3516 1529.23 -28.6082)" stroke="#F0C585" stroke-width="8"/>
<rect x="1778.13" y="3717.16" width="339.538" height="339.538" transform="rotate(20.8719 1778.13 3717.16)" stroke="#333333" stroke-width="8"/>
<rect x="1654.56" y="562.779" width="51.3035" height="51.3035" transform="rotate(-19.6158 1654.56 562.779)" stroke="#F0C585" stroke-width="4"/>
<rect x="-8.53419" y="11.6648" width="152.458" height="152.458" transform="rotate(15.7407 -8.53419 11.6648)" stroke="#F0C585" stroke-width="4"/>
<path d="M1753.25 299.686L1825.21 249.946L1832.3 337.131L1753.25 299.686Z" stroke="#333333" stroke-width="4"/>
<path d="M1458.86 860.257L1502.53 823.275L1512.72 879.585L1458.86 860.257Z" stroke="#333333" stroke-width="4"/>
<path d="M1689.7 509.823L1721.69 482.733L1729.15 523.981L1689.7 509.823Z" stroke="#333333" stroke-width="2"/>
<path d="M1774.75 478.617L1773.36 460.662L1789.6 468.431L1774.75 478.617Z" stroke="#333333" stroke-width="2"/>
<path d="M1733.3 647.165L1773.38 635.254L1763.66 675.916L1733.3 647.165Z" stroke="#F0C585" stroke-width="4"/>
<circle cx="1651.5" cy="835.5" r="109.5" stroke="#F0C585" stroke-width="12"/>
<circle r="27" transform="matrix(-1 0 0 1 1449.5 756.5)" stroke="#333333" stroke-width="5"/>
<circle r="16.5" transform="matrix(-1 0 0 1 173 116)" stroke="#333333" stroke-width="5"/>
<circle r="9" transform="matrix(-1 0 0 1 1725.5 692.5)" stroke="#333333" stroke-width="5"/>
<circle r="31" transform="matrix(-1 0 0 1 1796.5 395.5)" stroke="#F0C585" stroke-width="5"/>
<circle r="21" transform="matrix(-1 0 0 1 1764.5 589.5)" stroke="#333333" stroke-width="5"/>
<rect x="1820.65" y="1025.99" width="164.464" height="164.464" transform="rotate(88.5887 1820.65 1025.99)" stroke="#F0C585" stroke-width="4"/>
<rect x="1720.88" y="1737.78" width="164.464" height="164.464" transform="rotate(55.8507 1720.88 1737.78)" stroke="#F0C585" stroke-width="4"/>
<rect x="1513.39" y="1209.05" width="97.822" height="97.822" transform="rotate(105.959 1513.39 1209.05)" stroke="#F0C585" stroke-width="12"/>
<rect x="365.275" y="1701.27" width="34.1286" height="34.1286" transform="rotate(110.309 365.275 1701.27)" stroke="#F0C585" stroke-width="10"/>
<rect x="384.275" y="2727.27" width="34.1286" height="34.1286" transform="rotate(110.309 384.275 2727.27)" stroke="#333333" stroke-width="10"/>
<rect x="1882.28" y="4407.27" width="34.1286" height="34.1286" transform="rotate(110.309 1882.28 4407.27)" stroke="#333333" stroke-width="10"/>
<rect x="194.839" y="4778.28" width="34.1286" height="34.1286" transform="rotate(-30.2768 194.839 4778.28)" stroke="#333333" stroke-width="10"/>
<rect x="152.298" y="3127.08" width="88.7466" height="88.7466" transform="rotate(103.713 152.298 3127.08)" stroke="#333333" stroke-width="10"/>
<rect x="1452.5" y="908.172" width="56.7198" height="56.7198" transform="rotate(77.2262 1452.5 908.172)" stroke="#F0C585" stroke-width="12"/>
<rect x="1573.15" y="1671.64" width="54.6667" height="54.6667" transform="rotate(106.153 1573.15 1671.64)" stroke="#F0C585" stroke-width="12"/>
<rect x="1848.83" y="2030.47" width="68.6208" height="68.6208" transform="rotate(73.2849 1848.83 2030.47)" stroke="#F0C585" stroke-width="12"/>
<rect x="1842.74" y="2582.55" width="68.6208" height="68.6208" transform="rotate(161.14 1842.74 2582.55)" stroke="#F0C585" stroke-width="12"/>
<rect x="1854.74" y="3504.55" width="68.6208" height="68.6208" transform="rotate(161.14 1854.74 3504.55)" stroke="#F0C585" stroke-width="12"/>
<rect x="261.72" y="4994.05" width="58.4396" height="58.4396" transform="rotate(-164.605 261.72 4994.05)" stroke="#F0C585" stroke-width="12"/>
<rect x="127.83" y="4316.34" width="68.6208" height="68.6208" transform="rotate(-171.193 127.83 4316.34)" stroke="#333333" stroke-width="12"/>
<rect x="276.506" y="3822.4" width="36.7848" height="36.7848" transform="rotate(134.778 276.506 3822.4)" stroke="#333333" stroke-width="12"/>
<rect x="1655.75" y="3440.9" width="33.7604" height="33.7604" transform="rotate(-147.471 1655.75 3440.9)" stroke="#F0C585" stroke-width="12"/>
<rect x="246.93" y="3262.49" width="54.5648" height="54.5648" transform="rotate(-131.988 246.93 3262.49)" stroke="#F0C585" stroke-width="12"/>
<rect x="1686.71" y="3778.31" width="42.0197" height="42.0197" transform="rotate(-147.471 1686.71 3778.31)" stroke="black" stroke-width="12"/>
<rect x="1521.67" y="1121.77" width="33.6241" height="33.6241" transform="rotate(143.417 1521.67 1121.77)" stroke="#F0C585" stroke-width="4"/>
<rect x="1454.48" y="822.963" width="17.6406" height="17.6406" transform="rotate(143.417 1454.48 822.963)" stroke="#F0C585" stroke-width="4"/>
<rect x="1760.16" y="436.007" width="28.0538" height="28.0538" transform="rotate(120.569 1760.16 436.007)" stroke="#F0C585" stroke-width="4"/>
<rect x="1780.25" y="513.967" width="19.299" height="19.299" transform="rotate(92.6059 1780.25 513.967)" stroke="#333333" stroke-width="4"/>
<rect x="101.245" y="224.967" width="19.299" height="19.299" transform="rotate(92.6059 101.245 224.967)" stroke="#333333" stroke-width="4"/>
<rect x="1758.08" y="337.583" width="12.3112" height="12.3112" transform="rotate(69.0364 1758.08 337.583)" stroke="#333333" stroke-width="4"/>
<path d="M1657.55 1244.07L1580.3 1263.2L1602.36 1186.73L1657.55 1244.07Z" stroke="#333333" stroke-width="6"/>
<path d="M1647.26 1731.71L1597.04 1737.97L1616.72 1691.34L1647.26 1731.71Z" stroke="#333333" stroke-width="6"/>
<path d="M1860.55 2756.08L1809.96 2754.53L1836.59 2711.49L1860.55 2756.08Z" stroke="#333333" stroke-width="6"/>
<path d="M1849.22 1797.7L1781.38 1756.09L1851.34 1718.14L1849.22 1797.7Z" stroke="#333333" stroke-width="6"/>
<path d="M1639.22 2854.98L1597.37 2922.68L1559.67 2852.59L1639.22 2854.98Z" stroke="#F0C585" stroke-width="6"/>
<path d="M1731.88 3707.54L1744.71 3628.99L1806.32 3679.38L1731.88 3707.54Z" stroke="#F0C585" stroke-width="6"/>
<path d="M85.7324 3781.19L149.84 3706.49L182.479 3799.36L85.7324 3781.19Z" stroke="#F0C585" stroke-width="6"/>
<path d="M1682.79 2100.19L1630.64 2040.06L1708.79 2024.97L1682.79 2100.19Z" stroke="#F0C585" stroke-width="6"/>
<path d="M1556.71 983.589L1528.05 1033.12L1499.49 983.524L1556.71 983.589Z" stroke="#F0C585" stroke-width="4"/>
<path d="M1451.57 1146.22L1418.56 1145.42L1435.76 1117.23L1451.57 1146.22Z" stroke="#F0C585" stroke-width="4"/>
<circle r="25.5" transform="matrix(0.917184 0.398464 0.398464 -0.917184 1581.88 1066.56)" stroke="#333333" stroke-width="8"/>
<circle r="25.5" transform="matrix(0.917184 0.398464 0.398464 -0.917184 1788.81 1971.81)" stroke="#333333" stroke-width="8"/>
<circle r="16.3862" transform="matrix(0.917184 0.398464 0.398464 -0.917184 1872.82 2653.82)" stroke="#333333" stroke-width="8"/>
<circle r="12.701" transform="matrix(0.917184 0.398464 0.398464 -0.917184 1456.98 1044.97)" stroke="#333333" stroke-width="8"/>
<circle r="12.701" transform="matrix(0.917184 0.398464 0.398464 -0.917184 1561.97 1778.97)" stroke="#333333" stroke-width="8"/>
<circle r="12.701" transform="matrix(0.917184 0.398464 0.398464 -0.917184 1732.97 2100.97)" stroke="#333333" stroke-width="8"/>
<rect x="191.166" y="1159.95" width="217.783" height="217.783" transform="rotate(113.174 191.166 1159.95)" stroke="#333333" stroke-width="8"/>
<rect x="96.4074" y="3385.16" width="249.456" height="249.456" transform="rotate(69.233 96.4074 3385.16)" stroke="#333333" stroke-width="8"/>
<rect x="325.448" y="1166.28" width="85.2802" height="85.2802" transform="rotate(57.6901 325.448 1166.28)" stroke="#F0C585" stroke-width="12"/>
<rect x="403.631" y="1469.18" width="87.2205" height="87.2205" transform="rotate(107.118 403.631 1469.18)" stroke="#F0C585" stroke-width="4"/>
<rect x="334.585" y="1961.04" width="67.6404" height="67.6404" transform="rotate(135.456 334.585 1961.04)" stroke="#F0C585" stroke-width="4"/>
<path d="M274.661 1581.3L270.794 1661.75L203.054 1618.18L274.661 1581.3Z" stroke="#333333" stroke-width="8"/>
<path d="M366.673 2508.34L397.381 2582.8L317.542 2572.16L366.673 2508.34Z" stroke="#333333" stroke-width="8"/>
<path d="M1864.67 4188.34L1895.38 4262.8L1815.54 4252.16L1864.67 4188.34Z" stroke="#333333" stroke-width="8"/>
<path d="M281.789 2998.3L380.255 3065.75L272.605 3117.3L281.789 2998.3Z" stroke="#333333" stroke-width="6"/>
<path d="M312.909 2041.9L323.295 2081.34L283.945 2070.61L312.909 2041.9Z" stroke="#333333" stroke-width="8"/>
<path d="M283.546 2775.91L320.104 2794L286.164 2816.61L283.546 2775.91Z" stroke="#F0C585" stroke-width="8"/>
<path d="M1781.55 4455.91L1818.1 4474L1784.16 4496.62L1781.55 4455.91Z" stroke="#F0C585" stroke-width="8"/>
<path d="M1749.45 4998.91L1786.01 5017L1752.07 5039.61L1749.45 4998.91Z" stroke="#F0C585" stroke-width="8"/>
<path d="M1593.57 5059.35L1686.3 5088.27L1614.88 5154.12L1593.57 5059.35Z" stroke="#F0C585" stroke-width="8"/>
<path d="M124.147 3353.74L87.3532 3272.12L176.433 3281.07L124.147 3353.74Z" stroke="#F0C585" stroke-width="8"/>
<path d="M200.23 1047.63L190.031 1103.94L146.365 1066.96L200.23 1047.63Z" stroke="#F0C585" stroke-width="4"/>
<path d="M394.292 1773.39L397.972 1802.02L371.338 1790.89L394.292 1773.39Z" stroke="#333333" stroke-width="6"/>
<path d="M225.114 2161.7L231.244 2209.39L186.883 2190.85L225.114 2161.7Z" stroke="#F0C585" stroke-width="6"/>
<path d="M215.217 1285.49L263.842 1393.15L146.287 1381.43L215.217 1285.49Z" stroke="#F0C585" stroke-width="8"/>
<circle cx="1658.69" cy="2442.59" r="29.9388" transform="rotate(140.526 1658.69 2442.59)" stroke="#F0C585" stroke-width="12"/>
<circle cx="1650.94" cy="3558.53" r="76.022" transform="rotate(140.526 1650.94 3558.53)" stroke="#333333" stroke-width="4"/>
<circle cx="1838.95" cy="3607.95" r="21.1163" transform="rotate(140.526 1838.95 3607.95)" stroke="#333333" stroke-width="6"/>
<circle cx="126.947" cy="4401.95" r="21.1163" transform="rotate(140.526 126.947 4401.95)" stroke="#F0C585" stroke-width="6"/>
<circle cx="213.892" cy="3423.04" r="43.8101" transform="rotate(140.526 213.892 3423.04)" stroke="#333333" stroke-width="6"/>
<circle cx="1669.74" cy="3840.74" r="14.5743" transform="rotate(140.526 1669.74 3840.74)" stroke="#F0C585" stroke-width="6"/>
<circle r="27" transform="matrix(0.771909 -0.635733 -0.635733 -0.771909 262.618 1113.53)" stroke="#333333" stroke-width="5"/>
<rect x="191.088" y="943.541" width="177.468" height="177.468" transform="rotate(-114.894 191.088 943.541)" stroke="#F0C585" stroke-width="4"/>
<rect x="163.136" y="3032.01" width="188.106" height="188.106" transform="rotate(-126.67 163.136 3032.01)" stroke="#F0C585" stroke-width="4"/>
<rect x="1661.14" y="4712.01" width="188.106" height="188.106" transform="rotate(-126.67 1661.14 4712.01)" stroke="#F0C585" stroke-width="4"/>
<rect x="1635.14" y="2813.01" width="188.106" height="188.106" transform="rotate(-126.67 1635.14 2813.01)" stroke="#333333" stroke-width="4"/>
<rect x="278.982" y="2200.97" width="74.1795" height="74.1795" transform="rotate(-103.96 278.982 2200.97)" stroke="#333333" stroke-width="4"/>
<rect x="222.32" y="2734.31" width="74.1795" height="74.1795" transform="rotate(-103.96 222.32 2734.31)" stroke="#333333" stroke-width="4"/>
<rect x="1720.32" y="4414.31" width="74.1795" height="74.1795" transform="rotate(-103.96 1720.32 4414.31)" stroke="#333333" stroke-width="4"/>
<rect x="1770.82" y="4958.92" width="35.7257" height="35.7257" transform="rotate(-40.2973 1770.82 4958.92)" stroke="#333333" stroke-width="4"/>
<rect x="422.034" y="734.454" width="45.4275" height="45.4275" transform="rotate(-89.0469 422.034 734.454)" stroke="#F0C585" stroke-width="4"/>
<rect x="388.732" y="908.869" width="33.6241" height="33.6241" transform="rotate(-60.0654 388.732 908.869)" stroke="#F0C585" stroke-width="4"/>
<rect x="295.732" y="1037.87" width="33.6241" height="33.6241" transform="rotate(-60.0654 295.732 1037.87)" stroke="#F0C585" stroke-width="4"/>
<path d="M289.363 667.841L352.601 619.513L362.835 698.442L289.363 667.841Z" stroke="#333333" stroke-width="6"/>
<path d="M453.018 882.239L459.578 825.391L505.53 859.496L453.018 882.239Z" stroke="#333333" stroke-width="4"/>
<path d="M303.895 955.869L345.056 921.284L354.426 974.222L303.895 955.869Z" stroke="#333333" stroke-width="6"/>
<path d="M329.198 1348.11L365.09 1351.02L344.624 1380.65L329.198 1348.11Z" stroke="#333333" stroke-width="6"/>
<circle cx="115.001" cy="479" r="207.5" stroke="#F0C585" stroke-width="15"/>
<circle r="20" transform="matrix(-1 0 0 1 424.001 798)" stroke="#333333" stroke-width="8"/>
<circle r="14.5" transform="matrix(-1 0 0 1 248.501 995.5)" stroke="#333333" stroke-width="8"/>
<circle r="14.5" transform="matrix(-1 0 0 1 411.5 618.5)" stroke="#333333" stroke-width="8"/>
<circle r="14.5" transform="matrix(-1 0 0 1 337.501 1624.5)" stroke="#333333" stroke-width="8"/>
<circle r="14.5" transform="matrix(-1 0 0 1 418.5 1716.5)" stroke="#F0C585" stroke-width="8"/>
<circle r="25.5" transform="matrix(-1 0 0 1 336.5 2641.5)" stroke="#F0C585" stroke-width="8"/>
<circle r="25.5" transform="matrix(-1 0 0 1 1834.5 4321.5)" stroke="#F0C585" stroke-width="8"/>
<circle r="25.5" transform="matrix(-1 0 0 1 219.5 3074.5)" stroke="#F0C585" stroke-width="8"/>
<circle r="25.5" transform="matrix(-1 0 0 1 239.5 3697.5)" stroke="#333333" stroke-width="8"/>
<circle r="55.5" transform="matrix(-1 0 0 1 195.5 1497.5)" stroke="#333333" stroke-width="4"/>
<circle r="14.5" transform="matrix(-1 0 0 1 355.5 1900.5)" stroke="#333333" stroke-width="8"/>
<circle r="14.5" transform="matrix(-1 0 0 1 361.5 2861.5)" stroke="#333333" stroke-width="8"/>
<circle r="14.5" transform="matrix(-1 0 0 1 1859.5 4541.5)" stroke="#333333" stroke-width="8"/>
<circle r="32.7617" transform="matrix(0.77258 0.634917 0.634917 -0.77258 284.441 4710.21)" stroke="#333333" stroke-width="8"/>
<circle r="57.2768" transform="matrix(0.77258 0.634917 0.634917 -0.77258 1738.25 4191.25)" stroke="#F0C585" stroke-width="8"/>
<circle r="57.2768" transform="matrix(0.77258 0.634917 0.634917 -0.77258 1660.25 4966.25)" stroke="#F0C585" stroke-width="8"/>
<circle r="15.8126" transform="matrix(0.77258 0.634917 0.634917 -0.77258 1730.89 5079.89)" stroke="#333333" stroke-width="8"/>
<circle r="73.5" transform="matrix(-1 0 0 1 150.5 2052.5)" stroke="#333333" stroke-width="4"/>
<rect x="1431.69" y="691.316" width="85.2802" height="85.2802" transform="rotate(-82.8355 1431.69 691.316)" stroke="#F0C585" stroke-width="12"/>
<rect x="378.694" y="526.653" width="34.4325" height="34.4325" transform="rotate(-58.6572 378.694 526.653)" stroke="#F0C585" stroke-width="12"/>
<path d="M1566.8 697.421L1597.71 583.399L1681 667.182L1566.8 697.421Z" stroke="#333333" stroke-width="8"/>
<path d="M123.793 204.734L219.394 135.329L231.7 252.824L123.793 204.734Z" stroke="#333333" stroke-width="8"/>
<path d="M1632.04 2141.52L1983.04 2182.98L1771.64 2466.23L1632.04 2141.52Z" stroke="#333333" stroke-width="8"/>
<path d="M1721.89 3418.38L1688.31 3224.91L1872.65 3292.57L1721.89 3418.38Z" stroke="#333333" stroke-width="8"/>
<path d="M1930.37 4956.48L1607.64 4833.09L1875.85 4615.29L1930.37 4956.48Z" stroke="#333333" stroke-width="8"/>
<path d="M173.754 4208.47L312.094 4163.48L281.885 4305.78L173.754 4208.47Z" stroke="#333333" stroke-width="8"/>
<path d="M11.8313 5205.18L191.033 5038.47L245.811 5277.02L11.8313 5205.18Z" stroke="#F0C585" stroke-width="8"/>
<path d="M27.5572 1937.14L120.042 1596.01L369.223 1846.67L27.5572 1937.14Z" stroke="#F0C585" stroke-width="8"/>
<circle cx="1651.49" cy="835.5" r="109.5" stroke="#F0C585" stroke-width="12"/>
<circle cx="1840.86" cy="3002.86" r="207.5" transform="rotate(-156.518 1840.86 3002.86)" stroke="#F0C585" stroke-width="15"/>
<circle cx="90.2719" cy="4007.27" r="166.765" transform="rotate(-156.518 90.2719 4007.27)" stroke="#F0C585" stroke-width="15"/>
<rect x="369.827" y="4563.13" width="206.288" height="206.288" transform="rotate(143.208 369.827 4563.13)" stroke="#F0C585" stroke-width="8"/>
<circle r="16.2227" transform="matrix(-0.577799 -0.816179 -0.816179 0.577799 254.19 5066.91)" stroke="#333333" stroke-width="8"/>
</g>
<defs>
<clipPath id="clip0_140_1270">
<rect width="1920" height="5253" fill="white"/>
</clipPath>
</defs>
</svg>
