<svg width="1920" height="1892" viewBox="0 0 1920 1892" fill="none" xmlns="http://www.w3.org/2000/svg">
<rect x="672.983" y="1737.17" width="339.538" height="339.538" transform="rotate(113.174 672.983 1737.17)" stroke="#F0C585" stroke-width="8"/>
<rect x="314.745" y="1148.79" width="85.2802" height="85.2802" transform="rotate(57.6901 314.745 1148.79)" stroke="#F0C585" stroke-width="12"/>
<rect x="237.197" y="1414.61" width="67.6404" height="67.6404" transform="rotate(120.91 237.197 1414.61)" stroke="#F0C585" stroke-width="4"/>
<path d="M285.751 1538.79L281.552 1626.16L207.984 1578.84L285.751 1538.79Z" stroke="#333333" stroke-width="4"/>
<path d="M200.137 1047.63L189.938 1103.94L146.272 1066.95L200.137 1047.63Z" stroke="#333333" stroke-width="4"/>
<path d="M206.577 1229.96L255.202 1337.63L137.647 1325.9L206.577 1229.96Z" stroke="#333333" stroke-width="8"/>
<circle cx="53.4175" cy="1177.22" r="109.5" transform="rotate(140.526 53.4175 1177.22)" stroke="#F0C585" stroke-width="12"/>
<circle r="27" transform="matrix(0.771909 -0.635733 -0.635733 -0.771909 268.056 1080.77)" stroke="#333333" stroke-width="5"/>
<rect x="226.672" y="932.856" width="164.464" height="164.464" transform="rotate(-114.894 226.672 932.856)" stroke="#F0C585" stroke-width="4"/>
<rect x="435.541" y="642.521" width="97.822" height="97.822" transform="rotate(-97.5229 435.541 642.521)" stroke="#F0C585" stroke-width="12"/>
<rect x="462.731" y="725.87" width="33.6241" height="33.6241" transform="rotate(-60.0654 462.731 725.87)" stroke="#F0C585" stroke-width="4"/>
<path d="M289.362 667.841L352.6 619.513L362.834 698.442L289.362 667.841Z" stroke="#333333" stroke-width="6"/>
<path d="M511.018 870.239L517.578 813.391L563.53 847.496L511.018 870.239Z" stroke="#333333" stroke-width="4"/>
<circle cx="115" cy="479" r="207.5" stroke="#F0C585" stroke-width="15"/>
<circle r="25.5" transform="matrix(-1 0 0 1 429.5 800.5)" stroke="#333333" stroke-width="8"/>
<circle cx="1747.63" cy="1618.76" r="207.5" transform="rotate(-156.518 1747.63 1618.76)" stroke="#F0C585" stroke-width="15"/>
<rect x="1529.23" y="9.39141" width="339.538" height="339.538" transform="rotate(-27.3516 1529.23 9.39141)" stroke="#F0C585" stroke-width="8"/>
<rect x="1431.7" y="691.316" width="85.2802" height="85.2802" transform="rotate(-82.8355 1431.7 691.316)" stroke="#F0C585" stroke-width="12"/>
<rect x="1660.56" y="535.423" width="67.6404" height="67.6404" transform="rotate(-19.6158 1660.56 535.423)" stroke="#F0C585" stroke-width="4"/>
<path d="M1702.02 408.701L1760.81 343.927L1787.51 427.225L1702.02 408.701Z" stroke="#333333" stroke-width="4"/>
<path d="M1455.86 842.257L1499.53 805.275L1509.72 861.585L1455.86 842.257Z" stroke="#333333" stroke-width="4"/>
<path d="M1566.8 697.422L1597.72 583.4L1681.01 667.183L1566.8 697.422Z" stroke="#333333" stroke-width="8"/>
<circle cx="1651.5" cy="835.5" r="109.5" stroke="#F0C585" stroke-width="12"/>
<circle r="27" transform="matrix(-1 0 0 1 1424.5 773.5)" stroke="#333333" stroke-width="5"/>
<rect x="1826.05" y="1157.99" width="164.464" height="164.464" transform="rotate(88.5887 1826.05 1157.99)" stroke="#F0C585" stroke-width="4"/>
<rect x="1518.79" y="1341.06" width="97.822" height="97.822" transform="rotate(105.959 1518.79 1341.06)" stroke="#F0C585" stroke-width="12"/>
<rect x="1527.06" y="1253.78" width="33.6241" height="33.6241" transform="rotate(143.417 1527.06 1253.78)" stroke="#F0C585" stroke-width="4"/>
<path d="M1662.95 1376.08L1585.69 1395.21L1607.76 1318.74L1662.95 1376.08Z" stroke="#333333" stroke-width="6"/>
<path d="M1540.3 1102.12L1511.63 1151.65L1483.07 1102.06L1540.3 1102.12Z" stroke="#333333" stroke-width="4"/>
<circle r="25.5" transform="matrix(0.917184 0.398464 0.398464 -0.917184 1587.28 1198.57)" stroke="#333333" stroke-width="8"/>
</svg>
