<svg width="2354" height="2207" viewBox="0 0 2354 2207" fill="none" xmlns="http://www.w3.org/2000/svg">
<rect x="783.139" y="1889.17" width="339.538" height="339.538" transform="rotate(113.174 783.139 1889.17)" stroke="#F0C585" stroke-width="8"/>
<rect x="424.9" y="1300.79" width="85.2802" height="85.2802" transform="rotate(57.6901 424.9 1300.79)" stroke="#F0C585" stroke-width="12"/>
<rect x="347.352" y="1566.61" width="67.6404" height="67.6404" transform="rotate(120.91 347.352 1566.61)" stroke="#F0C585" stroke-width="4"/>
<path d="M395.907 1690.79L391.707 1778.16L318.14 1730.84L395.907 1690.79Z" stroke="#333333" stroke-width="4"/>
<path d="M310.292 1199.63L300.094 1255.94L256.428 1218.95L310.292 1199.63Z" stroke="#333333" stroke-width="4"/>
<path d="M316.733 1381.96L365.358 1489.63L247.803 1477.9L316.733 1381.96Z" stroke="#333333" stroke-width="8"/>
<circle cx="163.573" cy="1329.22" r="109.5" transform="rotate(140.526 163.573 1329.22)" stroke="#F0C585" stroke-width="12"/>
<circle r="27" transform="matrix(0.771909 -0.635733 -0.635733 -0.771909 378.212 1232.77)" stroke="#333333" stroke-width="5"/>
<rect x="336.828" y="1084.86" width="164.464" height="164.464" transform="rotate(-114.894 336.828 1084.86)" stroke="#F0C585" stroke-width="4"/>
<rect x="545.697" y="794.521" width="97.822" height="97.822" transform="rotate(-97.5229 545.697 794.521)" stroke="#F0C585" stroke-width="12"/>
<rect x="572.887" y="877.87" width="33.6241" height="33.6241" transform="rotate(-60.0654 572.887 877.87)" stroke="#F0C585" stroke-width="4"/>
<path d="M399.518 819.841L462.756 771.513L472.99 850.442L399.518 819.841Z" stroke="#333333" stroke-width="6"/>
<path d="M621.174 1022.24L627.734 965.391L673.685 999.496L621.174 1022.24Z" stroke="#333333" stroke-width="4"/>
<circle cx="225.156" cy="631" r="207.5" stroke="#F0C585" stroke-width="15"/>
<circle r="25.5" transform="matrix(-1 0 0 1 539.656 952.5)" stroke="#333333" stroke-width="8"/>
<circle cx="2070.78" cy="1770.76" r="207.5" transform="rotate(-156.518 2070.78 1770.76)" stroke="#F0C585" stroke-width="15"/>
<rect x="1852.39" y="161.392" width="339.538" height="339.538" transform="rotate(-27.3516 1852.39 161.392)" stroke="#F0C585" stroke-width="8"/>
<rect x="1754.86" y="843.316" width="85.2802" height="85.2802" transform="rotate(-82.8355 1754.86 843.316)" stroke="#F0C585" stroke-width="12"/>
<rect x="1983.71" y="687.423" width="67.6404" height="67.6404" transform="rotate(-19.6158 1983.71 687.423)" stroke="#F0C585" stroke-width="4"/>
<path d="M2025.18 560.702L2083.96 495.928L2110.67 579.226L2025.18 560.702Z" stroke="#333333" stroke-width="4"/>
<path d="M1779.02 994.257L1822.69 957.276L1832.88 1013.59L1779.02 994.257Z" stroke="#333333" stroke-width="4"/>
<path d="M1889.96 849.422L1920.87 735.4L2004.16 819.183L1889.96 849.422Z" stroke="#333333" stroke-width="8"/>
<circle cx="1974.66" cy="987.5" r="109.5" stroke="#F0C585" stroke-width="12"/>
<circle r="27" transform="matrix(-1 0 0 1 1747.66 925.5)" stroke="#333333" stroke-width="5"/>
<rect x="2149.2" y="1309.99" width="164.464" height="164.464" transform="rotate(88.5887 2149.2 1309.99)" stroke="#F0C585" stroke-width="4"/>
<rect x="1841.94" y="1493.06" width="97.822" height="97.822" transform="rotate(105.959 1841.94 1493.06)" stroke="#F0C585" stroke-width="12"/>
<rect x="1850.22" y="1405.77" width="33.6241" height="33.6241" transform="rotate(143.417 1850.22 1405.77)" stroke="#F0C585" stroke-width="4"/>
<path d="M1986.11 1528.08L1908.85 1547.21L1930.91 1470.74L1986.11 1528.08Z" stroke="#333333" stroke-width="6"/>
<path d="M1863.45 1254.12L1834.79 1303.65L1806.23 1254.06L1863.45 1254.12Z" stroke="#333333" stroke-width="4"/>
<circle r="25.5" transform="matrix(0.917184 0.398464 0.398464 -0.917184 1910.43 1350.57)" stroke="#333333" stroke-width="8"/>
</svg>
