<svg width="2177" height="2207" viewBox="0 0 2177 2207" fill="none" xmlns="http://www.w3.org/2000/svg">
<rect x="819.139" y="1889.17" width="339.538" height="339.538" transform="rotate(113.174 819.139 1889.17)" stroke="#F0C585" stroke-width="8"/>
<rect x="460.9" y="1300.79" width="85.2802" height="85.2802" transform="rotate(57.6901 460.9 1300.79)" stroke="#F0C585" stroke-width="12"/>
<rect x="383.352" y="1566.61" width="67.6404" height="67.6404" transform="rotate(120.91 383.352 1566.61)" stroke="#F0C585" stroke-width="4"/>
<path d="M431.906 1690.79L427.707 1778.16L354.14 1730.84L431.906 1690.79Z" stroke="#333333" stroke-width="4"/>
<path d="M346.293 1199.63L336.094 1255.94L292.428 1218.95L346.293 1199.63Z" stroke="#333333" stroke-width="4"/>
<path d="M352.733 1381.96L401.358 1489.63L283.803 1477.9L352.733 1381.96Z" stroke="#333333" stroke-width="8"/>
<circle cx="199.573" cy="1329.22" r="109.5" transform="rotate(140.526 199.573 1329.22)" stroke="#F0C585" stroke-width="12"/>
<circle r="27" transform="matrix(0.771909 -0.635733 -0.635733 -0.771909 414.212 1232.77)" stroke="#333333" stroke-width="5"/>
<rect x="372.828" y="1084.86" width="164.464" height="164.464" transform="rotate(-114.894 372.828 1084.86)" stroke="#F0C585" stroke-width="4"/>
<rect x="581.697" y="794.521" width="97.822" height="97.822" transform="rotate(-97.5229 581.697 794.521)" stroke="#F0C585" stroke-width="12"/>
<rect x="608.887" y="877.87" width="33.6241" height="33.6241" transform="rotate(-60.0654 608.887 877.87)" stroke="#F0C585" stroke-width="4"/>
<path d="M435.518 819.841L498.755 771.513L508.99 850.442L435.518 819.841Z" stroke="#333333" stroke-width="6"/>
<path d="M657.174 1022.24L663.734 965.391L709.685 999.496L657.174 1022.24Z" stroke="#333333" stroke-width="4"/>
<circle cx="261.156" cy="631" r="207.5" stroke="#F0C585" stroke-width="15"/>
<circle r="25.5" transform="matrix(-1 0 0 1 575.656 952.5)" stroke="#333333" stroke-width="8"/>
<circle cx="1893.78" cy="1770.76" r="207.5" transform="rotate(-156.518 1893.78 1770.76)" stroke="#F0C585" stroke-width="15"/>
<rect x="1675.39" y="161.391" width="339.538" height="339.538" transform="rotate(-27.3516 1675.39 161.391)" stroke="#F0C585" stroke-width="8"/>
<rect x="1577.86" y="843.316" width="85.2802" height="85.2802" transform="rotate(-82.8355 1577.86 843.316)" stroke="#F0C585" stroke-width="12"/>
<rect x="1806.71" y="687.423" width="67.6404" height="67.6404" transform="rotate(-19.6158 1806.71 687.423)" stroke="#F0C585" stroke-width="4"/>
<path d="M1848.18 560.701L1906.96 495.927L1933.67 579.225L1848.18 560.701Z" stroke="#333333" stroke-width="4"/>
<path d="M1602.02 994.257L1645.69 957.275L1655.88 1013.59L1602.02 994.257Z" stroke="#333333" stroke-width="4"/>
<path d="M1712.96 849.422L1743.87 735.4L1827.16 819.183L1712.96 849.422Z" stroke="#333333" stroke-width="8"/>
<circle cx="1797.66" cy="987.5" r="109.5" stroke="#F0C585" stroke-width="12"/>
<circle r="27" transform="matrix(-1 0 0 1 1570.66 925.5)" stroke="#333333" stroke-width="5"/>
<rect x="1972.2" y="1309.99" width="164.464" height="164.464" transform="rotate(88.5887 1972.2 1309.99)" stroke="#F0C585" stroke-width="4"/>
<rect x="1664.94" y="1493.06" width="97.822" height="97.822" transform="rotate(105.959 1664.94 1493.06)" stroke="#F0C585" stroke-width="12"/>
<rect x="1673.22" y="1405.77" width="33.6241" height="33.6241" transform="rotate(143.417 1673.22 1405.77)" stroke="#F0C585" stroke-width="4"/>
<path d="M1809.1 1528.08L1731.85 1547.21L1753.91 1470.74L1809.1 1528.08Z" stroke="#333333" stroke-width="6"/>
<path d="M1686.45 1254.12L1657.79 1303.65L1629.23 1254.06L1686.45 1254.12Z" stroke="#333333" stroke-width="4"/>
<circle r="25.5" transform="matrix(0.917184 0.398464 0.398464 -0.917184 1733.43 1350.57)" stroke="#333333" stroke-width="8"/>
</svg>
