<svg width="488" height="608" viewBox="0 0 488 608" fill="none" xmlns="http://www.w3.org/2000/svg">
<path d="M389 557H480V244.982C480 232.753 475.518 220.948 467.402 211.8L316.996 42.2648C297.069 19.8039 261.98 19.8475 242.109 42.3577L92.5154 211.822C84.4506 220.958 80 232.725 80 244.911C80 262.17 80 284.377 80 280" stroke="#F0C585" stroke-width="15"/>
<path d="M54.05 403.8C46.45 403.8 39.75 402.1 33.95 398.7C28.15 395.3 23.75 390.4 20.75 384L34.25 377.4C37.95 385 44.55 388.8 54.05 388.8C59.85 388.8 64.5 387.1 68 383.7C71.6 380.2 73.4 373.85 73.4 364.65V297H89V366.75C89 373.75 87.95 379.8 85.85 384.9C83.75 389.9 80.9 393.75 77.3 396.45C73.8 399.05 70.1 400.9 66.2 402C62.4 403.2 58.35 403.8 54.05 403.8ZM104.064 402V297H146.214C158.114 297 166.864 300.1 172.464 306.3C178.064 312.5 180.864 320.1 180.864 329.1C180.864 337.5 177.964 344.95 172.164 351.45C166.364 357.95 157.714 361.2 146.214 361.2H119.664V402H104.064ZM147.114 346.2C153.114 346.2 157.514 344.55 160.314 341.25C163.214 337.85 164.664 333.8 164.664 329.1C164.664 324.6 163.264 320.65 160.464 317.25C157.764 313.75 153.314 312 147.114 312H119.664V346.2H147.114ZM187.59 297H227.34C238.94 297 247.34 299.65 252.54 304.95C257.84 310.25 260.49 316.95 260.49 325.05C260.49 329.55 259.24 333.75 256.74 337.65C254.34 341.45 250.79 344.5 246.09 346.8C252.29 349 256.84 352.3 259.74 356.7C262.74 361.1 264.24 365.95 264.24 371.25C264.24 375.05 263.59 378.7 262.29 382.2C261.09 385.6 259.19 388.85 256.59 391.95C253.99 394.95 250.34 397.4 245.64 399.3C241.04 401.1 235.69 402 229.59 402H187.59V297ZM224.79 340.35C231.19 340.35 236.09 339.05 239.49 336.45C242.89 333.75 244.59 330.2 244.59 325.8C244.59 316.2 238.99 311.4 227.79 311.4H203.19V340.35H224.79ZM230.79 387.6C237.09 387.6 241.59 386.1 244.29 383.1C246.99 380.1 248.34 376.4 248.34 372C248.34 360.5 240.99 354.75 226.29 354.75H203.19V387.6H230.79ZM314.677 403.8C308.377 403.8 302.677 402.75 297.577 400.65C292.577 398.55 288.427 395.75 285.127 392.25C281.927 388.75 279.227 384.6 277.027 379.8C274.827 375 273.277 370.1 272.377 365.1C271.477 360.1 271.027 354.9 271.027 349.5C271.027 343.1 271.827 336.85 273.427 330.75C275.027 324.65 277.427 318.9 280.627 313.5C283.927 308 288.477 303.6 294.277 300.3C300.177 296.9 306.977 295.2 314.677 295.2C323.877 295.2 331.527 297.25 337.627 301.35C343.727 305.35 347.977 310.25 350.377 316.05L336.127 322.65C333.427 318.35 330.427 315.2 327.127 313.2C323.927 311.2 319.777 310.2 314.677 310.2C309.677 310.2 305.327 311.4 301.627 313.8C297.927 316.2 295.077 319.4 293.077 323.4C291.077 327.4 289.577 331.6 288.577 336C287.677 340.3 287.227 344.8 287.227 349.5C287.227 359.9 289.577 369.05 294.277 376.95C298.977 384.85 305.777 388.8 314.677 388.8C323.477 388.8 330.577 384.3 335.977 375.3L350.527 380.85C343.927 396.15 331.977 403.8 314.677 403.8Z" fill="white"/>
<path d="M14.256 474.616L13.904 471.8C13.904 463.587 17.4827 456.253 24.64 449.8C37.4293 438.419 58.08 431.379 86.592 428.68C90.9333 428.328 95.9787 428.152 101.728 428.152C107.595 428.152 114.987 429.032 123.904 430.792C132.821 432.435 140.155 435.544 145.904 440.12C155.056 447.629 159.632 457.485 159.632 469.688C159.632 481.773 155.995 492.979 148.72 503.304C141.563 513.512 132.411 521.432 121.264 527.064C110.117 532.696 98.208 535.512 85.536 535.512C72.864 535.512 62.5973 532.52 54.736 526.536C54.6187 526.653 54.032 527.651 52.976 529.528C52.0373 531.405 51.04 533.224 49.984 534.984C44.5867 543.549 39.776 544.723 35.552 538.504C33.088 534.867 31.856 530.525 31.856 525.48C31.856 520.435 32.384 514.333 33.44 507.176C33.5573 506.472 33.088 504.829 32.032 502.248C31.68 501.075 32.0907 499.901 33.264 498.728C34.2027 498.024 35.4933 497.437 37.136 496.968C38.896 496.499 40.0693 496.499 40.656 496.968C41.36 497.437 41.2427 498.728 40.304 500.84C39.3653 502.835 38.896 504.712 38.896 506.472C38.896 508.232 40.7147 510.872 44.352 514.392C47.9893 517.795 50.2187 519.613 51.04 519.848C53.856 512.925 59.84 499.96 68.992 480.952C70.048 478.84 70.576 477.256 70.576 476.2C70.576 475.144 70.4587 474.323 70.224 473.736C70.8107 470.333 74.5067 464.936 81.312 457.544C88.2347 450.152 93.808 446.456 98.032 446.456C99.6747 446.456 101.728 447.043 104.192 448.216C106.656 449.272 108.064 450.797 108.416 452.792C108.416 453.496 108.357 453.907 108.24 454.024C108.123 454.024 107.829 453.907 107.36 453.672C106.891 453.437 106.539 453.32 106.304 453.32C102.549 453.32 98.0907 456.077 92.928 461.592C87.8827 466.989 82.8373 474.088 77.792 482.888C68.8747 498.141 61.7173 511.635 56.32 523.368C63.5947 528.648 71.5147 531.288 80.08 531.288C91.2267 531.288 101.904 528.413 112.112 522.664C122.32 516.915 130.533 510.285 136.752 502.776C146.843 490.456 151.888 478.312 151.888 466.344C151.888 457.544 148.368 449.683 141.328 442.76C134.405 435.837 123.376 432.141 108.24 431.672C107.536 431.672 106.832 431.672 106.128 431.672C94.16 431.672 81.5467 433.667 68.288 437.656C55.0293 441.528 43.7067 447.101 34.32 454.376C24.9333 461.651 20.24 469.219 20.24 477.08C20.24 479.075 20.8267 480.835 22 482.36C23.2907 483.885 24.5813 484.941 25.872 485.528C27.28 486.115 28.9813 486.76 30.976 487.464C33.088 488.168 34.4373 488.696 35.024 489.048C35.728 489.283 36.1387 489.576 36.256 489.928C36.4907 490.867 35.6693 491.336 33.792 491.336C29.4507 490.984 25.0507 489.4 20.592 486.584C16.2507 483.651 14.08 480.248 14.08 476.376C14.08 475.789 14.1387 475.203 14.256 474.616ZM38.016 513.16C38.016 529 39.1307 536.92 41.36 536.92C43.0027 536.92 45.3493 532.813 48.4 524.6C48.6347 524.248 48.752 524.013 48.752 523.896C47.9307 523.192 46.1707 521.491 43.472 518.792C40.8907 515.976 39.072 514.099 38.016 513.16ZM200.665 477.784C207.001 477.784 210.169 480.835 210.169 486.936C210.169 490.104 209.289 492.685 207.529 494.68C204.595 499.021 199.843 502.835 193.273 506.12C186.702 509.288 181.129 511.048 176.553 511.4C174.91 511.517 174.03 511.048 173.913 509.992C173.795 509.523 173.913 509.229 174.265 509.112C174.734 508.995 175.086 508.936 175.321 508.936C178.019 508.701 181.481 507.411 185.705 505.064C193.566 500.84 199.315 496.499 202.953 492.04C204.478 489.928 205.241 487.933 205.241 486.056C205.241 484.061 204.302 483.064 202.425 483.064C200.899 483.064 198.846 483.709 196.265 485C190.75 487.581 184.942 492.099 178.841 498.552C172.739 504.888 168.75 511.107 166.873 517.208C166.286 519.085 165.993 520.963 165.993 522.84C165.993 524.6 166.755 526.301 168.281 527.944C169.806 529.587 172.153 530.408 175.321 530.408C178.841 530.408 182.889 529.469 187.465 527.592C200.723 522.195 210.931 514.04 218.089 503.128C218.793 502.189 219.438 502.013 220.025 502.6C220.494 502.835 220.729 503.128 220.729 503.48C220.729 503.832 220.553 504.243 220.201 504.712C216.681 510.579 212.222 515.8 206.825 520.376C196.382 529.293 186.233 533.752 176.377 533.752C167.929 533.752 162.003 531.229 158.601 526.184C157.31 524.189 156.665 521.784 156.665 518.968C156.665 516.152 157.427 512.808 158.953 508.936C161.886 502.248 168.163 495.384 177.785 488.344C187.406 481.304 195.033 477.784 200.665 477.784ZM217.972 530.76C216.447 532.52 216.095 533.928 216.916 534.984C217.855 536.04 218.852 536.568 219.908 536.568C221.081 536.568 222.255 536.392 223.428 536.04C228.473 534.515 233.343 531.523 238.036 527.064C242.847 522.488 245.252 517.853 245.252 513.16C245.252 510.579 242.377 507.763 236.628 504.712C233.929 503.304 232.404 502.483 232.052 502.248C228.884 500.136 226.889 498.024 226.068 495.912C224.425 498.728 221.785 502.776 218.148 508.056C217.327 508.995 216.564 509.229 215.86 508.76C215.156 508.173 215.097 507.411 215.684 506.472C220.495 499.901 223.663 494.387 225.188 489.928C226.009 483.475 230.703 477.667 239.268 472.504C247.833 467.341 255.636 464.76 262.676 464.76C267.135 464.76 270.244 465.581 272.004 467.224C273.881 468.749 274.82 470.275 274.82 471.8C274.82 473.325 274.351 475.085 273.412 477.08C272.591 479.075 270.831 480.952 268.132 482.712C267.428 483.181 266.841 483.064 266.372 482.36C266.137 481.656 266.607 480.717 267.78 479.544C269.071 478.253 269.892 476.552 270.244 474.44C270.596 472.328 269.657 471.037 267.428 470.568C267.076 470.568 266.724 470.568 266.372 470.568C261.796 470.568 256.047 472.269 249.124 475.672C242.319 479.075 236.98 483.475 233.108 488.872C231.583 490.867 230.82 492.92 230.82 495.032C230.82 497.027 232.228 498.845 235.044 500.488C236.217 501.192 238.212 502.307 241.028 503.832C243.844 505.357 245.839 506.472 247.012 507.176C248.185 507.88 249.593 508.995 251.236 510.52C252.879 512.045 253.759 513.453 253.876 514.744C254.463 518.264 252.82 522.136 248.948 526.36C243.433 532.461 235.22 536.744 224.308 539.208C221.844 539.795 219.321 540.088 216.74 540.088C214.276 540.088 212.575 539.149 211.636 537.272C211.284 536.803 211.108 536.04 211.108 534.984C211.108 534.045 212.047 532.461 213.924 530.232C215.684 528.472 218.5 526.771 222.372 525.128C222.724 525.011 223.017 525.069 223.252 525.304C223.487 525.539 223.545 525.832 223.428 526.184C223.311 526.536 222.665 526.947 221.492 527.416C220.436 527.885 219.263 529 217.972 530.76ZM285.186 480.248C288.119 480.248 289.879 481.187 290.466 483.064C290.701 484.12 290.525 485.176 289.938 486.232C289.469 487.171 289.117 487.933 288.882 488.52C288.647 489.107 288.471 489.576 288.354 489.928C287.767 491.101 287.181 492.216 286.594 493.272C279.906 506.648 276.386 515.155 276.034 518.792C275.917 519.848 275.858 521.197 275.858 522.84C275.858 524.483 276.327 525.832 277.266 526.888C278.909 528.765 281.255 528.883 284.306 527.24C287.357 525.597 291.581 522.312 296.978 517.384C302.493 512.456 306.951 507.645 310.354 502.952C310.823 502.365 311.351 502.248 311.938 502.6C312.525 502.835 312.818 503.128 312.818 503.48C312.818 503.715 312.701 504.008 312.466 504.36C310.706 507.528 307.538 511.576 302.962 516.504C295.453 524.6 289.175 529.587 284.13 531.464C281.197 532.52 278.733 533.048 276.738 533.048C272.045 533.048 268.935 530.819 267.41 526.36C267.175 525.539 267.058 524.541 267.058 523.368C267.058 519.261 268.935 513.043 272.69 504.712C272.103 506.003 269.815 508.936 265.826 513.512C264.77 514.685 263.949 514.685 263.362 513.512C263.245 513.277 263.186 512.984 263.186 512.632C263.186 512.163 263.421 511.635 263.89 511.048C269.639 503.891 274.157 497.848 277.442 492.92C277.207 492.333 277.325 491.571 277.794 490.632C280.141 484.061 282.194 480.6 283.954 480.248C284.306 480.248 284.717 480.248 285.186 480.248ZM299.09 456.84L297.682 462.472C297.682 463.528 296.919 465.229 295.394 467.576C293.869 469.923 292.695 471.096 291.874 471.096C286.829 471.096 284.306 469.864 284.306 467.4C284.306 466.931 286.829 464.76 291.874 460.888L294.866 458.6C296.743 456.957 297.917 456.136 298.386 456.136C298.855 456.136 299.09 456.371 299.09 456.84ZM303.417 596.056C302.478 596.056 301.305 595.88 299.897 595.528C293.913 594.003 290.921 590.835 290.921 586.024C290.921 581.331 294.03 575.405 300.249 568.248C306.35 561.091 319.316 550.941 339.145 537.8C347.593 520.552 353.46 506.883 356.745 496.792C350.174 504.771 345.481 510.285 342.665 513.336C332.105 525.069 323.598 530.936 317.145 530.936C315.268 530.936 313.214 530.349 310.985 529.176C308.873 528.12 307.054 526.595 305.529 524.6C304.004 522.488 303.241 520.259 303.241 517.912C303.241 511.693 307.582 504.712 316.265 496.968C321.428 492.275 326.825 488.285 332.457 485C338.089 481.715 342.548 479.661 345.833 478.84C349.118 478.019 352.286 477.608 355.337 477.608C358.388 477.608 361.086 478.429 363.433 480.072C365.78 481.715 366.953 483.357 366.953 485C366.953 485.939 366.484 486.232 365.545 485.88C364.254 483.651 361.38 482.536 356.921 482.536C352.58 482.536 347.593 484.003 341.961 486.936C336.446 489.752 331.46 493.155 327.001 497.144C322.542 501.016 318.729 505.475 315.561 510.52C312.51 515.448 310.985 519.085 310.985 521.432C310.985 525.539 312.158 527.592 314.505 527.592C317.79 527.592 322.836 524.893 329.641 519.496C339.732 511.635 349.412 502.072 358.681 490.808C360.206 488.579 363.374 488.637 368.185 490.984C370.062 491.923 370.825 492.744 370.473 493.448C368.948 496.851 366.132 502.776 362.025 511.224C358.036 519.555 355.044 525.832 353.049 530.056C355.748 528.648 360.324 525.128 366.777 519.496C373.348 513.747 379.097 507.997 384.025 502.248C386.606 499.197 387.897 498.728 387.897 500.84C387.897 503.773 380.857 511.517 366.777 524.072C358.681 531.347 352.932 535.923 349.529 537.8C339.556 558.333 332.868 571.24 329.465 576.52C320.665 589.544 311.982 596.056 303.417 596.056ZM335.801 544.488C321.721 555.048 311.63 563.379 305.529 569.48C299.428 575.699 296.377 581.507 296.377 586.904C296.377 588.547 296.905 589.72 297.961 590.424C299.017 591.128 300.132 591.48 301.305 591.48C302.478 591.48 304.18 590.6 306.409 588.84C308.638 587.08 310.516 585.32 312.041 583.56C313.684 581.917 315.092 580.333 316.265 578.808C317.438 577.4 318.729 575.523 320.137 573.176C321.662 570.947 322.836 569.187 323.657 567.896C324.478 566.605 325.593 564.552 327.001 561.736C328.526 559.037 329.524 557.16 329.993 556.104C330.58 555.165 331.577 553.171 332.985 550.12C334.51 547.069 335.449 545.192 335.801 544.488ZM430.316 479.016C433.015 479.016 434.364 480.483 434.364 483.416C434.364 486.232 433.015 490.163 430.316 495.208C427.617 500.253 425.623 504.36 424.332 507.528C422.103 512.925 420.988 517.267 420.988 520.552C420.988 523.72 421.457 525.832 422.396 526.888C424.156 528.765 426.561 528.883 429.612 527.24C432.663 525.48 436.887 522.195 442.284 517.384C447.799 512.456 452.199 507.645 455.484 502.952C455.953 502.365 456.481 502.248 457.068 502.6C457.772 502.835 458.124 503.128 458.124 503.48C458.124 503.715 458.007 504.008 457.772 504.36C456.012 507.528 452.844 511.576 448.268 516.504C443.692 521.432 439.292 525.421 435.068 528.472C430.844 531.405 426.679 532.872 422.572 532.872C418.583 532.755 415.767 531.816 414.124 530.056C412.481 528.413 411.66 526.301 411.66 523.72C411.66 521.139 411.895 518.675 412.364 516.328C412.833 513.864 413.713 511.048 415.004 507.88C417.116 502.835 418.935 498.904 420.46 496.088C422.103 493.272 422.924 491.453 422.924 490.632C422.924 489.693 422.455 489.224 421.516 489.224C419.639 489.224 416.06 491.512 410.78 496.088C407.143 499.491 401.745 505.944 394.588 515.448C387.548 524.835 383.559 529.821 382.62 530.408C378.396 532.52 375.756 533.576 374.7 533.576C373.644 533.576 373.116 533.4 373.116 533.048C373.116 532.696 373.233 532.168 373.468 531.464C373.703 530.877 374.817 527.709 376.812 521.96C378.924 516.211 381.153 509.933 383.5 503.128C385.964 496.205 387.431 492.04 387.9 490.632C388.487 489.224 388.839 488.051 388.956 487.112C389.191 486.056 389.425 485.176 389.66 484.472C389.895 483.768 390.305 483.005 390.892 482.184C391.596 481.245 392.476 480.776 393.532 480.776C394.588 480.659 395.937 480.776 397.58 481.128C399.223 481.363 400.044 482.067 400.044 483.24C400.044 484.061 399.399 485.88 398.108 488.696C396.817 491.395 393.121 500.84 387.02 517.032C391.244 511.869 396.583 505.944 403.036 499.256C409.489 492.451 414.945 487.288 419.404 483.768C423.863 480.6 427.5 479.016 430.316 479.016Z" fill="white"/>
</svg>
